<mxfile host="app.diagrams.net" modified="2024-05-08T10:16:13.923Z" agent="Mozilla/5.0 (Windows NT 10.0; Win64; x64) AppleWebKit/537.36 (KHTML, like Gecko) Chrome/124.0.0.0 Safari/537.36" etag="KYJGBGbuU_UiUH2mCHHl" version="24.3.1" type="github">
  <diagram name="Page-1" id="10a91c8b-09ff-31b1-d368-03940ed4cc9e">
    <mxGraphModel dx="4054" dy="965" grid="1" gridSize="10" guides="1" tooltips="1" connect="1" arrows="1" fold="1" page="1" pageScale="1" pageWidth="1100" pageHeight="850" background="none" math="0" shadow="0">
      <root>
        <mxCell id="0" />
        <mxCell id="1" parent="0" />
        <mxCell id="62893188c0fa7362-1" value="Home" style="whiteSpace=wrap;html=1;rounded=1;shadow=1;labelBackgroundColor=none;strokeWidth=1;fontFamily=Verdana;fontSize=12;align=center;" parent="1" vertex="1">
          <mxGeometry x="610" y="50" width="120" height="60" as="geometry" />
        </mxCell>
        <mxCell id="62893188c0fa7362-2" value="&lt;span&gt;NTV&lt;/span&gt;" style="whiteSpace=wrap;html=1;rounded=1;shadow=1;labelBackgroundColor=none;strokeWidth=1;fontFamily=Verdana;fontSize=12;align=center;" parent="1" vertex="1">
          <mxGeometry x="130" y="170" width="120" height="60" as="geometry" />
        </mxCell>
        <mxCell id="3zoi-v8WHWc3p_ySP_Ab-2" style="edgeStyle=none;rounded=0;orthogonalLoop=1;jettySize=auto;html=1;exitX=0;exitY=1;exitDx=0;exitDy=0;entryX=0;entryY=0.25;entryDx=0;entryDy=0;" edge="1" parent="1" source="62893188c0fa7362-3" target="62893188c0fa7362-10">
          <mxGeometry relative="1" as="geometry" />
        </mxCell>
        <mxCell id="62893188c0fa7362-3" value="&lt;span&gt;NTD&lt;/span&gt;" style="whiteSpace=wrap;html=1;rounded=1;shadow=1;labelBackgroundColor=none;strokeWidth=1;fontFamily=Verdana;fontSize=12;align=center;" parent="1" vertex="1">
          <mxGeometry x="1730" y="160" width="120" height="60" as="geometry" />
        </mxCell>
        <mxCell id="62893188c0fa7362-4" value="" style="rounded=0;html=1;labelBackgroundColor=none;startArrow=none;startFill=0;startSize=5;endArrow=none;endFill=0;endSize=5;jettySize=auto;orthogonalLoop=1;strokeWidth=1;fontFamily=Verdana;fontSize=12" parent="1" source="62893188c0fa7362-1" target="62893188c0fa7362-3" edge="1">
          <mxGeometry x="-0.3002" y="13" relative="1" as="geometry">
            <mxPoint as="offset" />
          </mxGeometry>
        </mxCell>
        <mxCell id="62893188c0fa7362-5" value="" style="rounded=0;html=1;labelBackgroundColor=none;startArrow=none;startFill=0;startSize=5;endArrow=none;endFill=0;endSize=5;jettySize=auto;orthogonalLoop=1;strokeWidth=1;fontFamily=Verdana;fontSize=12" parent="1" source="62893188c0fa7362-1" target="62893188c0fa7362-2" edge="1">
          <mxGeometry x="-0.359" y="-11" relative="1" as="geometry">
            <mxPoint as="offset" />
          </mxGeometry>
        </mxCell>
        <mxCell id="62893188c0fa7362-8" value="Đăng kí" style="whiteSpace=wrap;html=1;rounded=1;shadow=1;labelBackgroundColor=none;strokeWidth=1;fontFamily=Verdana;fontSize=12;align=center;" parent="1" vertex="1">
          <mxGeometry x="-400" y="290" width="120" height="60" as="geometry" />
        </mxCell>
        <mxCell id="62893188c0fa7362-9" value="Đăng nhập" style="whiteSpace=wrap;html=1;rounded=1;shadow=1;labelBackgroundColor=none;strokeWidth=1;fontFamily=Verdana;fontSize=12;align=center;" parent="1" vertex="1">
          <mxGeometry x="560" y="280" width="120" height="60" as="geometry" />
        </mxCell>
        <mxCell id="62893188c0fa7362-10" value="Đăng kí" style="whiteSpace=wrap;html=1;rounded=0;shadow=1;labelBackgroundColor=none;strokeWidth=2;fontFamily=Verdana;fontSize=12;align=center;direction=south;" parent="1" vertex="1">
          <mxGeometry x="1350" y="370" width="140" height="90" as="geometry" />
        </mxCell>
        <mxCell id="62893188c0fa7362-11" value="Đăng nhập" style="whiteSpace=wrap;html=1;rounded=0;shadow=1;labelBackgroundColor=none;strokeWidth=2;fontFamily=Verdana;fontSize=12;align=center;" parent="1" vertex="1">
          <mxGeometry x="2100" y="360" width="120" height="95" as="geometry" />
        </mxCell>
        <mxCell id="62893188c0fa7362-14" value="" style="rounded=0;html=1;labelBackgroundColor=none;startArrow=none;startFill=0;startSize=5;endArrow=none;endFill=0;endSize=5;jettySize=auto;orthogonalLoop=1;strokeWidth=1;fontFamily=Verdana;fontSize=12" parent="1" source="62893188c0fa7362-2" target="62893188c0fa7362-8" edge="1">
          <mxGeometry x="-0.2" y="-14" relative="1" as="geometry">
            <mxPoint as="offset" />
          </mxGeometry>
        </mxCell>
        <mxCell id="62893188c0fa7362-15" value="" style="rounded=0;html=1;labelBackgroundColor=none;startArrow=none;startFill=0;startSize=5;endArrow=none;endFill=0;endSize=5;jettySize=auto;orthogonalLoop=1;strokeWidth=1;fontFamily=Verdana;fontSize=12;exitX=1.017;exitY=0.867;exitDx=0;exitDy=0;exitPerimeter=0;" parent="1" source="62893188c0fa7362-2" target="62893188c0fa7362-9" edge="1">
          <mxGeometry x="-0.2" y="14" relative="1" as="geometry">
            <mxPoint as="offset" />
            <mxPoint x="385" y="350" as="sourcePoint" />
          </mxGeometry>
        </mxCell>
        <mxCell id="62893188c0fa7362-17" value="" style="rounded=0;html=1;labelBackgroundColor=none;startArrow=none;startFill=0;startSize=5;endArrow=none;endFill=0;endSize=5;jettySize=auto;orthogonalLoop=1;strokeWidth=1;fontFamily=Verdana;fontSize=12;entryX=0.349;entryY=-0.056;entryDx=0;entryDy=0;entryPerimeter=0;" parent="1" source="62893188c0fa7362-3" target="62893188c0fa7362-11" edge="1">
          <mxGeometry x="-0.1294" y="17" relative="1" as="geometry">
            <mxPoint as="offset" />
            <mxPoint x="2120" y="260" as="targetPoint" />
          </mxGeometry>
        </mxCell>
        <mxCell id="3zoi-v8WHWc3p_ySP_Ab-5" value="Họ và tên lót" style="rounded=0;whiteSpace=wrap;html=1;" vertex="1" parent="1">
          <mxGeometry x="-1430" y="550" width="120" height="60" as="geometry" />
        </mxCell>
        <mxCell id="3zoi-v8WHWc3p_ySP_Ab-7" value="" style="endArrow=none;html=1;rounded=0;entryX=0.45;entryY=1.05;entryDx=0;entryDy=0;entryPerimeter=0;" edge="1" parent="1" target="62893188c0fa7362-8">
          <mxGeometry width="50" height="50" relative="1" as="geometry">
            <mxPoint x="-1000" y="500" as="sourcePoint" />
            <mxPoint x="-220" y="450" as="targetPoint" />
          </mxGeometry>
        </mxCell>
        <mxCell id="3zoi-v8WHWc3p_ySP_Ab-30" value="No" style="edgeLabel;html=1;align=center;verticalAlign=middle;resizable=0;points=[];" vertex="1" connectable="0" parent="3zoi-v8WHWc3p_ySP_Ab-7">
          <mxGeometry x="0.2106" y="-1" relative="1" as="geometry">
            <mxPoint as="offset" />
          </mxGeometry>
        </mxCell>
        <mxCell id="3zoi-v8WHWc3p_ySP_Ab-8" value="" style="endArrow=none;html=1;rounded=0;" edge="1" parent="1">
          <mxGeometry width="50" height="50" relative="1" as="geometry">
            <mxPoint x="-1360" y="500" as="sourcePoint" />
            <mxPoint x="-800" y="500" as="targetPoint" />
          </mxGeometry>
        </mxCell>
        <mxCell id="3zoi-v8WHWc3p_ySP_Ab-9" value="" style="endArrow=classic;html=1;rounded=0;" edge="1" parent="1">
          <mxGeometry width="50" height="50" relative="1" as="geometry">
            <mxPoint x="-1360" y="500" as="sourcePoint" />
            <mxPoint x="-1360" y="550" as="targetPoint" />
          </mxGeometry>
        </mxCell>
        <mxCell id="3zoi-v8WHWc3p_ySP_Ab-10" value="&lt;span style=&quot;color: rgb(33, 37, 41); font-family: Roboto, sans-serif; font-size: 16px; text-align: left; background-color: rgb(255, 255, 255);&quot;&gt;Tên&amp;nbsp;&lt;/span&gt;" style="rounded=0;whiteSpace=wrap;html=1;" vertex="1" parent="1">
          <mxGeometry x="-1220" y="550" width="120" height="60" as="geometry" />
        </mxCell>
        <mxCell id="3zoi-v8WHWc3p_ySP_Ab-11" value="" style="endArrow=classic;html=1;rounded=0;entryX=0.5;entryY=0;entryDx=0;entryDy=0;" edge="1" parent="1" target="3zoi-v8WHWc3p_ySP_Ab-10">
          <mxGeometry width="50" height="50" relative="1" as="geometry">
            <mxPoint x="-1160" y="500" as="sourcePoint" />
            <mxPoint x="-1180" y="510" as="targetPoint" />
          </mxGeometry>
        </mxCell>
        <mxCell id="3zoi-v8WHWc3p_ySP_Ab-12" value="&lt;span style=&quot;color: rgb(33, 37, 41); font-family: Roboto, sans-serif; font-size: 16px; text-align: left; background-color: rgb(255, 255, 255);&quot;&gt;Số điện thoại&amp;nbsp;&lt;/span&gt;" style="rounded=0;whiteSpace=wrap;html=1;" vertex="1" parent="1">
          <mxGeometry x="-1050" y="550" width="120" height="60" as="geometry" />
        </mxCell>
        <mxCell id="3zoi-v8WHWc3p_ySP_Ab-13" value="" style="endArrow=classic;html=1;rounded=0;entryX=0.5;entryY=0;entryDx=0;entryDy=0;" edge="1" parent="1" target="3zoi-v8WHWc3p_ySP_Ab-12">
          <mxGeometry width="50" height="50" relative="1" as="geometry">
            <mxPoint x="-990" y="500" as="sourcePoint" />
            <mxPoint x="-1010" y="510" as="targetPoint" />
          </mxGeometry>
        </mxCell>
        <mxCell id="3zoi-v8WHWc3p_ySP_Ab-15" value="&lt;span style=&quot;color: rgb(33, 37, 41); font-family: Roboto, sans-serif; font-size: 16px; text-align: left; background-color: rgb(255, 255, 255);&quot;&gt;Email&amp;nbsp;&lt;/span&gt;" style="rounded=0;whiteSpace=wrap;html=1;" vertex="1" parent="1">
          <mxGeometry x="-860" y="550" width="120" height="60" as="geometry" />
        </mxCell>
        <mxCell id="3zoi-v8WHWc3p_ySP_Ab-16" value="" style="endArrow=classic;html=1;rounded=0;entryX=0.5;entryY=0;entryDx=0;entryDy=0;" edge="1" parent="1" target="3zoi-v8WHWc3p_ySP_Ab-15">
          <mxGeometry width="50" height="50" relative="1" as="geometry">
            <mxPoint x="-800" y="500" as="sourcePoint" />
            <mxPoint x="-820" y="510" as="targetPoint" />
          </mxGeometry>
        </mxCell>
        <mxCell id="3zoi-v8WHWc3p_ySP_Ab-17" value="" style="endArrow=none;html=1;rounded=0;" edge="1" parent="1">
          <mxGeometry width="50" height="50" relative="1" as="geometry">
            <mxPoint x="-800" y="500" as="sourcePoint" />
            <mxPoint x="-620" y="500" as="targetPoint" />
          </mxGeometry>
        </mxCell>
        <mxCell id="3zoi-v8WHWc3p_ySP_Ab-18" value="&lt;span style=&quot;color: rgb(33, 37, 41); font-family: Roboto, sans-serif; font-size: 16px; text-align: left; background-color: rgb(255, 255, 255);&quot;&gt;Mật khẩu&lt;/span&gt;" style="rounded=0;whiteSpace=wrap;html=1;" vertex="1" parent="1">
          <mxGeometry x="-680" y="550" width="120" height="60" as="geometry" />
        </mxCell>
        <mxCell id="3zoi-v8WHWc3p_ySP_Ab-19" value="" style="endArrow=classic;html=1;rounded=0;entryX=0.5;entryY=0;entryDx=0;entryDy=0;" edge="1" parent="1" target="3zoi-v8WHWc3p_ySP_Ab-18">
          <mxGeometry width="50" height="50" relative="1" as="geometry">
            <mxPoint x="-620" y="500" as="sourcePoint" />
            <mxPoint x="-640" y="510" as="targetPoint" />
          </mxGeometry>
        </mxCell>
        <mxCell id="3zoi-v8WHWc3p_ySP_Ab-20" value="&lt;span style=&quot;color: rgb(33, 37, 41); font-family: Roboto, sans-serif; font-size: 16px; text-align: left; background-color: rgb(255, 255, 255);&quot;&gt;Nhập lại mật khẩu&lt;/span&gt;" style="rounded=0;whiteSpace=wrap;html=1;" vertex="1" parent="1">
          <mxGeometry x="-510" y="550" width="120" height="60" as="geometry" />
        </mxCell>
        <mxCell id="3zoi-v8WHWc3p_ySP_Ab-21" value="" style="endArrow=classic;html=1;rounded=0;entryX=0.5;entryY=0;entryDx=0;entryDy=0;" edge="1" parent="1" target="3zoi-v8WHWc3p_ySP_Ab-20">
          <mxGeometry width="50" height="50" relative="1" as="geometry">
            <mxPoint x="-450" y="500" as="sourcePoint" />
            <mxPoint x="-470" y="510" as="targetPoint" />
          </mxGeometry>
        </mxCell>
        <mxCell id="3zoi-v8WHWc3p_ySP_Ab-22" value="" style="endArrow=none;html=1;rounded=0;" edge="1" parent="1">
          <mxGeometry width="50" height="50" relative="1" as="geometry">
            <mxPoint x="-620" y="500" as="sourcePoint" />
            <mxPoint x="-450" y="500" as="targetPoint" />
          </mxGeometry>
        </mxCell>
        <mxCell id="3zoi-v8WHWc3p_ySP_Ab-23" value="" style="endArrow=none;html=1;rounded=0;entryX=0.45;entryY=1.05;entryDx=0;entryDy=0;entryPerimeter=0;" edge="1" parent="1">
          <mxGeometry width="50" height="50" relative="1" as="geometry">
            <mxPoint x="619.29" y="437" as="sourcePoint" />
            <mxPoint x="619.29" y="340" as="targetPoint" />
          </mxGeometry>
        </mxCell>
        <mxCell id="3zoi-v8WHWc3p_ySP_Ab-34" value="Yes" style="edgeLabel;html=1;align=center;verticalAlign=middle;resizable=0;points=[];" vertex="1" connectable="0" parent="3zoi-v8WHWc3p_ySP_Ab-23">
          <mxGeometry x="-0.1039" y="-2" relative="1" as="geometry">
            <mxPoint x="-131" y="46" as="offset" />
          </mxGeometry>
        </mxCell>
        <mxCell id="3zoi-v8WHWc3p_ySP_Ab-25" value="" style="endArrow=none;html=1;rounded=0;" edge="1" parent="1">
          <mxGeometry width="50" height="50" relative="1" as="geometry">
            <mxPoint x="400" y="440" as="sourcePoint" />
            <mxPoint x="850" y="440" as="targetPoint" />
          </mxGeometry>
        </mxCell>
        <mxCell id="3zoi-v8WHWc3p_ySP_Ab-55" value="Yes" style="edgeLabel;html=1;align=center;verticalAlign=middle;resizable=0;points=[];" vertex="1" connectable="0" parent="3zoi-v8WHWc3p_ySP_Ab-25">
          <mxGeometry x="-0.5974" relative="1" as="geometry">
            <mxPoint as="offset" />
          </mxGeometry>
        </mxCell>
        <mxCell id="3zoi-v8WHWc3p_ySP_Ab-26" value="" style="endArrow=classic;html=1;rounded=0;" edge="1" parent="1">
          <mxGeometry width="50" height="50" relative="1" as="geometry">
            <mxPoint x="400" y="440" as="sourcePoint" />
            <mxPoint x="400" y="510" as="targetPoint" />
          </mxGeometry>
        </mxCell>
        <mxCell id="3zoi-v8WHWc3p_ySP_Ab-27" value="" style="endArrow=classic;html=1;rounded=0;" edge="1" parent="1">
          <mxGeometry width="50" height="50" relative="1" as="geometry">
            <mxPoint x="849.29" y="440" as="sourcePoint" />
            <mxPoint x="849" y="520" as="targetPoint" />
          </mxGeometry>
        </mxCell>
        <mxCell id="3zoi-v8WHWc3p_ySP_Ab-28" value="&lt;span style=&quot;color: rgb(33, 37, 41); font-family: Roboto, sans-serif; font-size: 16px; text-align: left; background-color: rgb(255, 255, 255);&quot;&gt;Quên mật khẩu&lt;/span&gt;" style="rounded=0;whiteSpace=wrap;html=1;" vertex="1" parent="1">
          <mxGeometry x="350" y="510" width="120" height="60" as="geometry" />
        </mxCell>
        <mxCell id="3zoi-v8WHWc3p_ySP_Ab-33" value="" style="endArrow=classic;startArrow=classic;html=1;rounded=0;exitX=1;exitY=0.5;exitDx=0;exitDy=0;entryX=0;entryY=0.5;entryDx=0;entryDy=0;" edge="1" parent="1" source="62893188c0fa7362-8" target="62893188c0fa7362-9">
          <mxGeometry width="50" height="50" relative="1" as="geometry">
            <mxPoint x="-30" y="620" as="sourcePoint" />
            <mxPoint x="20" y="570" as="targetPoint" />
          </mxGeometry>
        </mxCell>
        <mxCell id="3zoi-v8WHWc3p_ySP_Ab-36" value="" style="endArrow=none;html=1;rounded=0;" edge="1" parent="1">
          <mxGeometry width="50" height="50" relative="1" as="geometry">
            <mxPoint x="720" y="520" as="sourcePoint" />
            <mxPoint x="940" y="520" as="targetPoint" />
          </mxGeometry>
        </mxCell>
        <mxCell id="3zoi-v8WHWc3p_ySP_Ab-37" value="" style="endArrow=classic;html=1;rounded=0;" edge="1" parent="1">
          <mxGeometry width="50" height="50" relative="1" as="geometry">
            <mxPoint x="720" y="520" as="sourcePoint" />
            <mxPoint x="720" y="590" as="targetPoint" />
          </mxGeometry>
        </mxCell>
        <mxCell id="3zoi-v8WHWc3p_ySP_Ab-38" value="" style="endArrow=classic;html=1;rounded=0;" edge="1" parent="1">
          <mxGeometry width="50" height="50" relative="1" as="geometry">
            <mxPoint x="940" y="520" as="sourcePoint" />
            <mxPoint x="940" y="590" as="targetPoint" />
          </mxGeometry>
        </mxCell>
        <mxCell id="3zoi-v8WHWc3p_ySP_Ab-39" value="&lt;span style=&quot;color: rgb(33, 37, 41); font-family: Roboto, sans-serif; font-size: 16px; text-align: left; background-color: rgb(255, 255, 255);&quot;&gt;Số điện thoại&amp;nbsp;&lt;/span&gt;" style="rounded=0;whiteSpace=wrap;html=1;" vertex="1" parent="1">
          <mxGeometry x="650" y="590" width="130" height="60" as="geometry" />
        </mxCell>
        <mxCell id="3zoi-v8WHWc3p_ySP_Ab-40" value="&lt;span style=&quot;color: rgb(33, 37, 41); font-family: Roboto, sans-serif; font-size: 16px; text-align: left; background-color: rgb(255, 255, 255);&quot;&gt;Mật khẩu&lt;/span&gt;" style="rounded=0;whiteSpace=wrap;html=1;" vertex="1" parent="1">
          <mxGeometry x="880" y="590" width="120" height="60" as="geometry" />
        </mxCell>
        <mxCell id="3zoi-v8WHWc3p_ySP_Ab-41" value="" style="endArrow=none;html=1;rounded=0;exitX=0;exitY=0.5;exitDx=0;exitDy=0;entryX=1;entryY=0.5;entryDx=0;entryDy=0;" edge="1" parent="1" source="3zoi-v8WHWc3p_ySP_Ab-40" target="3zoi-v8WHWc3p_ySP_Ab-39">
          <mxGeometry width="50" height="50" relative="1" as="geometry">
            <mxPoint x="790" y="690" as="sourcePoint" />
            <mxPoint x="790" y="610" as="targetPoint" />
          </mxGeometry>
        </mxCell>
        <mxCell id="3zoi-v8WHWc3p_ySP_Ab-42" value="" style="endArrow=classic;html=1;rounded=0;" edge="1" parent="1">
          <mxGeometry width="50" height="50" relative="1" as="geometry">
            <mxPoint x="830" y="620" as="sourcePoint" />
            <mxPoint x="830" y="730" as="targetPoint" />
          </mxGeometry>
        </mxCell>
        <mxCell id="3zoi-v8WHWc3p_ySP_Ab-43" value="Profile" style="rounded=0;whiteSpace=wrap;html=1;" vertex="1" parent="1">
          <mxGeometry x="770" y="730" width="120" height="60" as="geometry" />
        </mxCell>
        <mxCell id="3zoi-v8WHWc3p_ySP_Ab-44" value="" style="endArrow=classic;html=1;rounded=0;entryX=0.571;entryY=0.038;entryDx=0;entryDy=0;entryPerimeter=0;" edge="1" parent="1" target="3zoi-v8WHWc3p_ySP_Ab-45">
          <mxGeometry width="50" height="50" relative="1" as="geometry">
            <mxPoint x="800" y="790" as="sourcePoint" />
            <mxPoint x="800" y="860" as="targetPoint" />
          </mxGeometry>
        </mxCell>
        <mxCell id="3zoi-v8WHWc3p_ySP_Ab-48" value="No" style="edgeLabel;html=1;align=center;verticalAlign=middle;resizable=0;points=[];" vertex="1" connectable="0" parent="3zoi-v8WHWc3p_ySP_Ab-44">
          <mxGeometry x="-0.3639" y="1" relative="1" as="geometry">
            <mxPoint x="-12" y="10" as="offset" />
          </mxGeometry>
        </mxCell>
        <mxCell id="3zoi-v8WHWc3p_ySP_Ab-45" value="Cập nhật thông tin" style="rounded=0;whiteSpace=wrap;html=1;" vertex="1" parent="1">
          <mxGeometry x="640" y="847.89" width="120" height="60" as="geometry" />
        </mxCell>
        <mxCell id="3zoi-v8WHWc3p_ySP_Ab-46" value="" style="endArrow=classic;html=1;rounded=0;" edge="1" parent="1">
          <mxGeometry width="50" height="50" relative="1" as="geometry">
            <mxPoint x="700" y="907.89" as="sourcePoint" />
            <mxPoint x="700" y="1007.89" as="targetPoint" />
          </mxGeometry>
        </mxCell>
        <mxCell id="3zoi-v8WHWc3p_ySP_Ab-47" value="Cập nhật quá trình làm việc" style="rounded=0;whiteSpace=wrap;html=1;" vertex="1" parent="1">
          <mxGeometry x="640" y="1007.89" width="120" height="60" as="geometry" />
        </mxCell>
        <mxCell id="3zoi-v8WHWc3p_ySP_Ab-52" value="Sửa thông tin" style="rounded=0;whiteSpace=wrap;html=1;" vertex="1" parent="1">
          <mxGeometry x="900" y="850" width="120" height="60" as="geometry" />
        </mxCell>
        <mxCell id="3zoi-v8WHWc3p_ySP_Ab-53" value="" style="endArrow=classic;html=1;rounded=0;" edge="1" parent="1">
          <mxGeometry width="50" height="50" relative="1" as="geometry">
            <mxPoint x="880" y="790" as="sourcePoint" />
            <mxPoint x="920" y="850" as="targetPoint" />
          </mxGeometry>
        </mxCell>
        <mxCell id="3zoi-v8WHWc3p_ySP_Ab-54" value="Yes" style="edgeLabel;html=1;align=center;verticalAlign=middle;resizable=0;points=[];" vertex="1" connectable="0" parent="3zoi-v8WHWc3p_ySP_Ab-53">
          <mxGeometry x="-0.3639" y="1" relative="1" as="geometry">
            <mxPoint x="6" y="10" as="offset" />
          </mxGeometry>
        </mxCell>
        <mxCell id="3zoi-v8WHWc3p_ySP_Ab-56" value="No" style="edgeLabel;html=1;align=center;verticalAlign=middle;resizable=0;points=[];" vertex="1" connectable="0" parent="1">
          <mxGeometry x="529.9963157894733" y="450" as="geometry">
            <mxPoint x="168" y="-8" as="offset" />
          </mxGeometry>
        </mxCell>
      </root>
    </mxGraphModel>
  </diagram>
</mxfile>
